<svg xmlns="http://www.w3.org/2000/svg" width="62" height="62" viewBox="0 0 62 62">
  <g fill="none" fill-rule="evenodd" transform="rotate(-90 31 30)">
    <circle cx="30" cy="30" r="30" fill="#0A121C" stroke="#FFF"/>
    <path fill="#FFF" fill-rule="nonzero" d="M20.02424,20.4595496 C22.5228494,17.6467954 26.0800469,16 29.901126,16 C37.2459052,16 43.2000252,22.0441559 43.2000252,29.5 C43.2000252,36.9558441 37.2459052,43 29.901126,43 C29.4853838,43 29.1483582,42.657878 29.1483582,42.2358491 C29.1483582,41.8138201 29.4853838,41.4716981 29.901126,41.4716981 C36.4144208,41.4716981 41.6944894,36.1117863 41.6944894,29.5 C41.6944894,22.8882137 36.4144208,17.5283019 29.901126,17.5283019 C26.7256149,17.5283019 23.7577685,18.8093623 21.5729609,21.0231182 L24.9757797,22.2613799 L17.270322,29.7397765 L16,18.9951571 L20.02424,20.4595496 Z" transform="rotate(90 29.6 29.5)"/>
  </g>
</svg>
